<svg width="29" height="29" viewBox="0 0 29 29" fill="none" xmlns="http://www.w3.org/2000/svg">
<g clip-path="url(#clip0_1_2)">
<path d="M22.39 0H6.48C2.90119 0 0 2.90119 0 6.48V22.39C0 25.9688 2.90119 28.87 6.48 28.87H22.39C25.9688 28.87 28.87 25.9688 28.87 22.39V6.48C28.87 2.90119 25.9688 0 22.39 0Z" fill="#0B86CA"/>
<path d="M8 12H11V21.68H8V12ZM9.53 7.19C9.87371 7.19001 10.2097 7.29181 10.4956 7.48256C10.7816 7.67332 11.0046 7.94448 11.1366 8.26184C11.2686 8.5792 11.3036 8.92855 11.2373 9.2658C11.1709 9.60305 11.0062 9.9131 10.7639 10.1568C10.5215 10.4006 10.2124 10.5671 9.87554 10.6353C9.53868 10.7036 9.18914 10.6706 8.87103 10.5404C8.55292 10.4102 8.28048 10.1888 8.08809 9.90395C7.8957 9.61913 7.79197 9.28371 7.79 8.94C7.78868 8.71066 7.83271 8.48332 7.91957 8.27106C8.00642 8.0588 8.13438 7.8658 8.29608 7.70317C8.45779 7.54053 8.65005 7.41147 8.86181 7.3234C9.07357 7.23533 9.30065 7.19 9.53 7.19Z" fill="white"/>
<path d="M12.92 12H15.81V13.32C16.0993 12.8263 16.5172 12.4204 17.0192 12.1457C17.5211 11.8709 18.0882 11.7376 18.66 11.76C21.66 11.76 22.27 13.76 22.27 16.37V21.68H19.27V17C19.27 15.88 19.27 14.43 17.71 14.43C16.15 14.43 15.91 15.65 15.91 16.91V21.7H12.91L12.92 12Z" fill="white"/>
</g>
<defs>
<clipPath id="clip0_1_2">
<rect width="28.87" height="28.87" fill="white"/>
</clipPath>
</defs>
</svg>
