<svg width="208" height="210" viewBox="0 0 208 210" fill="none" xmlns="http://www.w3.org/2000/svg">
<path d="M196 152.143V57.4783C196 56.0616 195.624 54.6703 194.91 53.4466C194.196 52.223 193.17 51.2109 191.936 50.5138L107.936 3.0355C106.736 2.35671 105.379 2 104 2C102.621 2 101.264 2.35671 100.064 3.0355L16.0635 50.5138C14.8302 51.2109 13.8041 52.223 13.0902 53.4466C12.3762 54.6703 12 56.0616 12 57.4783V152.143C12 153.56 12.3762 154.951 13.0902 156.174C13.8041 157.398 14.8302 158.41 16.0635 159.107L100.064 206.586C101.264 207.264 102.621 207.621 104 207.621C105.379 207.621 106.736 207.264 107.936 206.586L191.936 159.107C193.17 158.41 194.196 157.398 194.91 156.174C195.624 154.951 196 153.56 196 152.143Z" fill="white" stroke="black" stroke-width="3" stroke-linecap="round" stroke-linejoin="round"/>
<path d="M151.143 13H56.4783C55.0616 13 53.6703 13.3762 52.4466 14.0902C51.223 14.8041 50.2109 15.8302 49.5138 17.0635L2.0355 101.064C1.35671 102.264 1 103.621 1 105C1 106.379 1.35671 107.736 2.0355 108.936L49.5138 192.936C50.2109 194.17 51.223 195.196 52.4466 195.91C53.6703 196.624 55.0616 197 56.4783 197L151.143 197C152.56 197 153.951 196.624 155.174 195.91C156.398 195.196 157.41 194.17 158.107 192.936L205.586 108.936C206.264 107.736 206.621 106.379 206.621 105C206.621 103.621 206.264 102.264 205.586 101.064L158.107 17.0635C157.41 15.8302 156.398 14.8041 155.174 14.0902C153.951 13.3762 152.56 13 151.143 13Z" fill="white" stroke="#D6C956" stroke-width="2" stroke-linecap="round" stroke-linejoin="round"/>
<path d="M93.24 102.48C96.376 103.184 98.872 104.56 100.728 106.608C102.648 108.656 103.608 111.056 103.608 113.808C103.608 117.52 102.04 120.496 98.904 122.736C95.768 124.912 91.544 126 86.232 126H66.168L65.496 124.272C67.096 123.824 68.248 123.408 68.952 123.024C69.656 122.576 70.136 122 70.392 121.296C70.648 120.592 70.776 119.504 70.776 118.032V92.016C70.776 89.776 70.584 88.144 70.2 87.12C69.88 86.096 69.08 85.2 67.8 84.432L66.648 83.76L67.032 82.512C69.08 81.872 71.704 81.36 74.904 80.976C78.168 80.528 81.112 80.304 83.736 80.304C89.368 80.304 93.752 81.36 96.888 83.472C100.088 85.584 101.688 88.528 101.688 92.304C101.688 94.672 100.92 96.752 99.384 98.544C97.912 100.272 95.864 101.584 93.24 102.48ZM86.136 123.888C88.44 123.888 90.328 122.96 91.8 121.104C93.336 119.248 94.104 116.88 94.104 114C94.104 111.056 93.112 108.656 91.128 106.8C89.144 104.944 86.328 103.696 82.68 103.056V101.904C85.624 101.904 87.928 101.04 89.592 99.312C91.32 97.584 92.184 95.248 92.184 92.304C92.184 89.36 91.48 87.024 90.072 85.296C88.664 83.504 86.776 82.608 84.408 82.608C83 82.608 81.912 83.088 81.144 84.048C80.376 84.944 79.992 86.224 79.992 87.888V115.344C79.992 117.968 80.536 120.048 81.624 121.584C82.776 123.12 84.28 123.888 86.136 123.888ZM118.317 88.56C118.317 91.12 119.213 93.232 121.005 94.896C122.797 96.496 125.485 98.32 129.069 100.368C131.693 101.84 133.773 103.12 135.309 104.208C136.845 105.296 138.157 106.672 139.245 108.336C140.333 110 140.877 111.92 140.877 114.096C140.877 118.064 139.277 121.2 136.077 123.504C132.941 125.744 128.717 126.864 123.405 126.864C118.861 126.864 115.181 126 112.365 124.272C109.613 122.544 108.237 120.208 108.237 117.264C108.237 115.344 108.877 113.84 110.157 112.752C111.501 111.6 113.165 111.024 115.149 111.024C116.685 111.024 118.157 111.408 119.565 112.176C117.581 113.2 116.589 115.216 116.589 118.224C116.589 120.016 117.229 121.552 118.509 122.832C119.853 124.048 121.645 124.656 123.885 124.656C126.189 124.656 127.981 124.016 129.261 122.736C130.605 121.456 131.277 119.856 131.277 117.936C131.277 115.696 130.445 113.872 128.781 112.464C127.181 110.992 124.717 109.296 121.389 107.376C118.765 105.968 116.589 104.656 114.861 103.44C113.197 102.224 111.789 100.72 110.637 98.928C109.485 97.136 108.909 95.024 108.909 92.592C108.909 88.944 110.445 86 113.517 83.76C116.653 81.456 120.717 80.304 125.709 80.304C129.997 80.304 133.485 81.136 136.173 82.8C138.861 84.4 140.205 86.544 140.205 89.232C140.205 90.96 139.629 92.336 138.477 93.36C137.325 94.32 135.757 94.8 133.773 94.8C132.365 94.8 130.893 94.448 129.357 93.744C130.189 93.104 130.829 92.304 131.277 91.344C131.725 90.384 131.949 89.392 131.949 88.368C131.949 86.768 131.373 85.424 130.221 84.336C129.069 83.184 127.373 82.608 125.133 82.608C122.957 82.608 121.261 83.184 120.045 84.336C118.893 85.488 118.317 86.896 118.317 88.56Z" fill="black"/>
</svg>
